<svg width="52" height="52" viewBox="0 0 52 52" fill="none" xmlns="http://www.w3.org/2000/svg">
<g filter="url(#filter0_d_301_103)">
<g clip-path="url(#clip0_301_103)">
<path d="M14 8C13.4696 8 12.9609 8.21071 12.5858 8.58579C12.2107 8.96086 12 9.46957 12 10V34C12 34.5304 12.2107 35.0391 12.5858 35.4142C12.9609 35.7893 13.4696 36 14 36H38C38.5304 36 39.0391 35.7893 39.4142 35.4142C39.7893 35.0391 40 34.5304 40 34V10C40 9.46957 39.7893 8.96086 39.4142 8.58579C39.0391 8.21071 38.5304 8 38 8H29C28.4696 8 27.9609 8.21071 27.5858 8.58579C27.2107 8.96086 27 9.46957 27 10V24.586L32.292 19.292C32.4798 19.1042 32.7344 18.9987 33 18.9987C33.2656 18.9987 33.5202 19.1042 33.708 19.292C33.8958 19.4798 34.0013 19.7344 34.0013 20C34.0013 20.2656 33.8958 20.5202 33.708 20.708L26.708 27.708C26.6151 27.8011 26.5048 27.875 26.3833 27.9254C26.2618 27.9758 26.1315 28.0018 26 28.0018C25.8685 28.0018 25.7382 27.9758 25.6167 27.9254C25.4952 27.875 25.3849 27.8011 25.292 27.708L18.292 20.708C18.199 20.615 18.1253 20.5046 18.075 20.3832C18.0246 20.2617 17.9987 20.1315 17.9987 20C17.9987 19.8685 18.0246 19.7383 18.075 19.6168C18.1253 19.4954 18.199 19.385 18.292 19.292C18.385 19.199 18.4954 19.1253 18.6168 19.075C18.7383 19.0246 18.8685 18.9987 19 18.9987C19.1315 18.9987 19.2617 19.0246 19.3832 19.075C19.5046 19.1253 19.615 19.199 19.708 19.292L25 24.586V10C25 8.93913 25.4214 7.92172 26.1716 7.17157C26.9217 6.42143 27.9391 6 29 6H38C39.0609 6 40.0783 6.42143 40.8284 7.17157C41.5786 7.92172 42 8.93913 42 10V34C42 35.0609 41.5786 36.0783 40.8284 36.8284C40.0783 37.5786 39.0609 38 38 38H14C12.9391 38 11.9217 37.5786 11.1716 36.8284C10.4214 36.0783 10 35.0609 10 34V10C10 8.93913 10.4214 7.92172 11.1716 7.17157C11.9217 6.42143 12.9391 6 14 6H19C19.2652 6 19.5196 6.10536 19.7071 6.29289C19.8946 6.48043 20 6.73478 20 7C20 7.26522 19.8946 7.51957 19.7071 7.70711C19.5196 7.89464 19.2652 8 19 8H14Z" fill="#FF9A62"/>
<path d="M29 19H35V21H29V19Z" fill="#FF9A62"/>
<path d="M23 27H21V25H19V27H17V29H19V31H21V29H23V27Z" fill="#FF9A62"/>
<path d="M17 15H23V17H17V15Z" fill="#FF9A62"/>
<path d="M29 23H35V25H29V23Z" fill="#FF9A62"/>
<path d="M37 9H15C14.4697 9.00053 13.9613 9.21141 13.5864 9.58637C13.2114 9.96133 13.0005 10.4697 13 11V33C13.0005 33.5303 13.2114 34.0387 13.5864 34.4136C13.9613 34.7886 14.4697 34.9995 15 35H37C37.5303 34.9995 38.0387 34.7886 38.4136 34.4136C38.7886 34.0387 38.9995 33.5303 39 33V11C38.9995 10.4697 38.7886 9.96133 38.4136 9.58637C38.0387 9.21141 37.5303 9.00053 37 9V9ZM25 11V21H15V11H25ZM15 23H25V33H15V23ZM27 33V11H37V33H27Z" fill="#FF9A62"/>
</g>
<rect x="10.1" y="6.1" width="31.8" height="31.8" rx="4.9" stroke="#FF9A62" stroke-width="0.2" shape-rendering="crispEdges"/>
</g>
<defs>
<filter id="filter0_d_301_103" x="0" y="0" width="52" height="52" filterUnits="userSpaceOnUse" color-interpolation-filters="sRGB">
<feFlood flood-opacity="0" result="BackgroundImageFix"/>
<feColorMatrix in="SourceAlpha" type="matrix" values="0 0 0 0 0 0 0 0 0 0 0 0 0 0 0 0 0 0 127 0" result="hardAlpha"/>
<feOffset dy="4"/>
<feGaussianBlur stdDeviation="5"/>
<feComposite in2="hardAlpha" operator="out"/>
<feColorMatrix type="matrix" values="0 0 0 0 1 0 0 0 0 0.603922 0 0 0 0 0.384314 0 0 0 1 0"/>
<feBlend mode="normal" in2="BackgroundImageFix" result="effect1_dropShadow_301_103"/>
<feBlend mode="normal" in="SourceGraphic" in2="effect1_dropShadow_301_103" result="shape"/>
</filter>
<clipPath id="clip0_301_103">
<rect x="10" y="6" width="32" height="32" rx="5" fill="white"/>
</clipPath>
</defs>
</svg>
